# Blender v2.82 (sub 7) OBJ File: 'char-model.blend'
# www.blender.org
mtllib char-model.mtl
o Cube
v 0.281732 1.876898 -0.263398
v 0.376398 0.000519 -0.412608
v 0.264537 1.873059 0.364575
v 0.329550 0.000519 0.390511
v 0.332305 1.740102 -0.312906
v 0.345213 1.502431 -0.312906
v 0.306488 1.740102 0.390392
v 0.319396 1.502431 0.390392
v 0.297581 1.887794 -0.136585
v 0.297581 1.887794 0.136585
v 0.439029 0.000519 0.136704
v 0.439029 0.000519 -0.180387
v 0.348910 1.502431 -0.136585
v 0.348910 1.502431 0.136585
v 0.337561 1.740102 -0.136585
v 0.337561 1.740102 0.136585
v 0.195196 1.900951 -0.284688
v 0.175627 0.000519 -0.503628
v 0.195196 1.927079 0.367802
v 0.168410 1.497183 0.398673
v 0.168410 1.770352 0.398673
v 0.204877 1.502431 -0.383901
v 0.204877 1.775600 -0.383901
v 0.195196 1.948864 -0.136585
v 0.195196 1.948864 0.136585
v 0.175627 0.000519 -0.180506
v 0.076723 0.000519 0.361300
v 0.201548 1.639015 0.358599
v 0.149123 -0.004729 0.398673
v 0.097598 1.939997 0.367802
v 0.102438 1.813493 0.393935
v 0.200036 1.857029 0.417104
v 0.102438 1.502431 0.361300
v 0.102630 1.854867 0.365146
v 0.168410 1.633768 0.398673
v 0.168410 1.360599 0.398673
v 0.102438 1.639015 0.361300
v 0.102438 1.365846 0.361300
v 0.100018 1.888394 0.417737
v 0.201548 1.365846 0.358599
v 0.169587 0.000519 0.358599
v 0.201548 1.502431 0.358599
v 0.191390 1.772961 0.354540
v 0.262137 1.502431 0.421130
v 0.255683 1.757851 0.421130
v 0.293963 0.000519 0.421250
v 0.284220 1.253330 -0.283280
v 0.258404 1.253330 0.390392
v 0.318734 1.253330 -0.136585
v 0.318734 1.253330 0.136585
v 0.204877 1.253330 -0.354275
v 0.168410 1.248082 0.398673
v 0.238793 1.253330 0.421130
v -0.281732 1.876898 -0.263398
v -0.376398 0.000519 -0.412608
v -0.264537 1.873059 0.364575
v -0.329550 0.000519 0.390511
v 0.000000 0.000519 -0.503628
v 0.000000 1.952915 0.367802
v 0.000000 1.920175 -0.284688
v -0.332305 1.740102 -0.312906
v -0.345213 1.502431 -0.312906
v -0.306488 1.740102 0.390392
v -0.319396 1.502431 0.390392
v 0.000000 1.775600 -0.383901
v 0.000000 1.502431 -0.383901
v 0.000000 1.828300 0.393935
v -0.297581 1.887794 -0.136585
v -0.297581 1.887794 0.136585
v -0.439029 0.000519 0.136704
v -0.439029 0.000519 -0.180387
v 0.000000 0.000519 -0.180506
v 0.000000 0.000519 0.361300
v 0.000000 1.966738 -0.107625
v 0.000000 1.966738 0.172168
v -0.348909 1.502431 -0.136585
v -0.348909 1.502431 0.136585
v -0.337561 1.740102 -0.136585
v -0.337561 1.740102 0.136585
v -0.195196 1.900951 -0.284688
v -0.175627 0.000519 -0.503628
v -0.195196 1.927079 0.367802
v -0.168410 1.497183 0.398673
v -0.168410 1.770352 0.398673
v -0.204877 1.502431 -0.383901
v -0.204877 1.775600 -0.383901
v -0.195196 1.948864 -0.136585
v -0.195196 1.948864 0.136585
v -0.175627 0.000519 -0.180506
v -0.076723 0.000519 0.361300
v 0.000000 1.502431 0.361300
v -0.201548 1.639015 0.358599
v 0.000000 1.875628 0.366378
v -0.149123 -0.004729 0.398673
v -0.097598 1.939997 0.367802
v 0.000000 1.894853 0.417737
v -0.102438 1.813493 0.393935
v -0.200036 1.857029 0.417104
v 0.000000 1.365846 0.361300
v 0.000000 1.639015 0.361300
v -0.102438 1.502431 0.361300
v -0.102630 1.854867 0.365146
v -0.168410 1.633768 0.398673
v -0.168410 1.360599 0.398673
v -0.102438 1.639015 0.361300
v -0.102438 1.365846 0.361300
v -0.100018 1.888394 0.417737
v -0.201548 1.365846 0.358599
v -0.169587 0.000519 0.358599
v -0.201548 1.502431 0.358599
v -0.191390 1.772961 0.354540
v -0.262137 1.502431 0.421130
v -0.255683 1.757851 0.421130
v -0.293963 0.000519 0.421250
v -0.284220 1.253330 -0.283280
v -0.258404 1.253330 0.390392
v 0.000000 1.253330 -0.354275
v -0.318734 1.253330 -0.136585
v -0.318734 1.253330 0.136585
v -0.204877 1.253330 -0.354275
v -0.168410 1.248082 0.398673
v -0.238793 1.253330 0.421130
v -0.057460 1.110175 0.361300
v -0.128430 1.106361 0.361300
v -0.057460 1.065631 0.361300
v -0.126654 1.065631 0.361300
v -0.040068 1.125160 0.535158
v -0.138093 1.115707 0.534669
v -0.040068 1.048653 0.522321
v -0.136317 1.048653 0.522321
v -0.108497 1.122186 0.361300
v -0.108497 1.131532 0.534669
v -0.072417 1.122186 0.361300
v -0.072417 1.131532 0.534669
v -0.040068 1.104148 0.562479
v -0.137205 1.104148 0.562479
v -0.040068 1.070711 0.562479
v -0.136761 1.070711 0.562479
v -0.040068 1.110175 0.466176
v -0.138093 1.106361 0.466176
v -0.108497 1.122186 0.466176
v -0.072417 1.122186 0.466176
v -0.040068 1.097479 0.522087
v -0.040068 1.058135 0.519351
v -0.136317 1.058135 0.519351
v -0.136317 1.097479 0.522087
v -0.136317 1.061108 0.492635
v -0.049791 1.054803 0.492635
v -0.040068 1.087539 0.540036
v -0.136317 1.087539 0.540036
v -0.040068 1.071209 0.536622
v -0.136317 1.071209 0.536622
v -0.136317 1.097877 0.531454
v -0.040068 1.097877 0.531454
v -0.040068 1.084913 0.506341
v -0.136317 1.084913 0.506341
v -0.088193 1.042049 0.522321
v -0.088415 1.070711 0.562479
v -0.112216 1.051905 0.361300
v -0.112216 1.047382 0.492635
v -0.072338 1.051905 0.361407
v -0.060793 1.036595 0.492742
v -0.136317 1.061175 0.472549
v -0.040068 1.050388 0.472549
v -0.112216 1.047449 0.472549
v -0.060793 1.036662 0.472657
v -0.038413 1.034457 0.524745
v -0.044207 1.043210 0.532482
v -0.058929 1.028000 0.534597
v -0.054598 1.027962 0.523282
v -0.136317 1.065123 0.453707
v -0.040068 1.065123 0.453707
v -0.112216 1.051397 0.453707
v -0.072338 1.051397 0.453814
v -0.057460 1.110175 0.455220
v -0.057460 1.065176 0.444054
v -0.126654 1.065191 0.441287
v -0.128430 1.106361 0.452080
v -0.258910 1.630141 0.421130
vt 0.312500 0.666667
vt 0.375000 0.666667
vt 0.375000 0.750000
vt 0.343750 0.750000
vt 0.312500 0.750000
vt 0.312500 0.708333
vt 0.541667 0.666667
vt 0.625000 0.666667
vt 0.625000 0.750000
vt 0.541667 0.750000
vt 0.541667 0.437500
vt 0.625000 0.437500
vt 0.625000 0.500000
vt 0.541667 0.500000
vt 0.583333 0.843750
vt 0.625000 0.843750
vt 0.625000 0.875000
vt 0.583333 0.875000
vt 0.687500 0.666667
vt 0.750000 0.666667
vt 0.750000 0.750000
vt 0.718750 0.750000
vt 0.687500 0.750000
vt 0.375000 0.812500
vt 0.420840 0.812500
vt 0.458333 0.812500
vt 0.416667 0.812500
vt 0.541667 0.812500
vt 0.500000 0.812500
vt 0.429485 0.437500
vt 0.458333 0.437500
vt 0.458333 0.500000
vt 0.429485 0.500000
vt 0.429485 0.666667
vt 0.458333 0.666667
vt 0.458333 0.750000
vt 0.429485 0.750000
vt 0.541667 0.583333
vt 0.458333 0.583333
vt 0.429485 0.583333
vt 0.687500 0.500000
vt 0.750000 0.500000
vt 0.750000 0.583333
vt 0.687500 0.583333
vt 0.625000 0.583333
vt 0.312500 0.500000
vt 0.375000 0.500000
vt 0.375000 0.583333
vt 0.312500 0.583333
vt 0.250000 0.583333
vt 0.250000 0.666667
vt 0.250000 0.500000
vt 0.458333 0.375000
vt 0.541667 0.375000
vt 0.429485 0.375000
vt 0.458333 0.781250
vt 0.541667 0.781250
vt 0.429485 0.781250
vt 0.625000 0.812500
vt 0.583333 0.812500
vt 0.625000 0.375000
vt 0.541667 0.843750
vt 0.541667 0.875000
vt 0.541667 0.875000
vt 0.541667 0.843750
vt 0.541667 0.828125
vt 0.458333 0.828125
vt 0.416667 0.828125
vt 0.375000 0.828125
vt 0.500000 0.828125
vt 0.375000 0.781250
vt 0.375000 0.375000
vt 0.375000 0.437500
vt 0.312500 0.666667
vt 0.312500 0.708333
vt 0.312500 0.750000
vt 0.343750 0.750000
vt 0.375000 0.750000
vt 0.375000 0.666667
vt 0.541667 0.666667
vt 0.541667 0.750000
vt 0.625000 0.750000
vt 0.625000 0.666667
vt 0.541667 0.437500
vt 0.541667 0.500000
vt 0.625000 0.500000
vt 0.625000 0.437500
vt 0.583333 0.843750
vt 0.625000 0.843750
vt 0.687500 0.666667
vt 0.687500 0.750000
vt 0.718750 0.750000
vt 0.375000 0.812500
vt 0.416667 0.812500
vt 0.458333 0.812500
vt 0.420840 0.812500
vt 0.500000 0.812500
vt 0.541667 0.812500
vt 0.429485 0.437500
vt 0.429485 0.500000
vt 0.458333 0.500000
vt 0.458333 0.437500
vt 0.429485 0.666667
vt 0.429485 0.750000
vt 0.458333 0.750000
vt 0.458333 0.666667
vt 0.458333 0.583333
vt 0.541667 0.583333
vt 0.429485 0.583333
vt 0.687500 0.500000
vt 0.687500 0.583333
vt 0.625000 0.583333
vt 0.312500 0.500000
vt 0.312500 0.583333
vt 0.375000 0.583333
vt 0.375000 0.500000
vt 0.458333 0.781250
vt 0.541667 0.781250
vt 0.500000 0.781250
vt 0.429485 0.781250
vt 0.625000 0.812500
vt 0.583333 0.812500
vt 0.541667 0.843750
vt 0.541667 0.843750
vt 0.541667 0.828125
vt 0.416667 0.828125
vt 0.458333 0.828125
vt 0.375000 0.828125
vt 0.500000 0.828125
vt 0.375000 0.781250
vt 0.375000 0.437500
vt 0.416667 0.843750
vt 0.458333 0.843750
vt 0.458333 0.875000
vt 0.416667 0.875000
vt 0.500000 0.843750
vt 0.500000 0.875000
vt 0.375000 0.843750
vt 0.409516 0.875000
vt 0.406639 0.875000
vt 0.375000 0.875000
vt 0.416667 0.843750
vt 0.458333 0.843750
vt 0.500000 0.843750
vt 0.409516 0.843750
vt 0.409516 0.853185
vt 0.409516 0.864687
vt 0.375000 0.843750
vt 0.406639 0.843750
vt 0.406639 0.863288
vt 0.406639 0.851575
vt 0.406639 0.843750
vt 0.406639 0.875000
vt 0.406639 0.875000
vt 0.406639 0.859375
vt 0.406639 0.843750
vt 0.409516 0.843750
vt 0.408078 0.843750
vt 0.409516 0.853185
vt 0.406639 0.875000
vt 0.409516 0.875000
vt 0.409516 0.875000
vt 0.408078 0.875000
vt 0.407358 0.875000
vt 0.406639 0.875000
vt 0.406639 0.875000
vt 0.406639 0.875000
vt 0.406639 0.875000
vt 0.406639 0.875000
vt 0.406639 0.875000
vt 0.406639 0.875000
vt 0.409516 0.843750
vt 0.406639 0.843750
vt 0.406639 0.843750
vt 0.406639 0.843750
vt 0.406639 0.843750
vt 0.406639 0.843750
vt 0.406639 0.843750
vt 0.406639 0.843750
vt 0.406639 0.843750
vt 0.406639 0.843750
vt 0.407359 0.843750
vt 0.409516 0.843750
vt 0.409516 0.853185
vt 0.409516 0.864687
vt 0.409516 0.864687
vt 0.407358 0.859375
vt 0.409516 0.875000
vt 0.406639 0.875000
vt 0.406639 0.875000
vt 0.406639 0.851575
vt 0.406639 0.863288
vt 0.406639 0.851575
vt 0.406639 0.863288
vt 0.406639 0.851575
vt 0.406639 0.863288
vt 0.406639 0.863288
vt 0.406639 0.863288
vt 0.406639 0.875000
vn 0.0043 -1.0000 -0.0086
vn 0.9477 0.2891 0.1350
vn 0.4563 0.5161 -0.7249
vn 0.0660 0.6726 0.7370
vn 0.1183 0.9895 0.0825
vn 0.0000 0.0000 1.0000
vn 0.5355 -0.1641 -0.8285
vn 0.4697 0.0119 -0.8828
vn 0.9691 -0.1773 0.1715
vn 0.9917 0.0506 0.1184
vn 0.9984 0.0509 -0.0253
vn 0.9989 0.0477 0.0000
vn 0.9759 -0.1854 -0.1154
vn 0.9927 -0.1203 0.0000
vn 0.0704 0.9579 -0.2783
vn 0.0912 0.9958 0.0000
vn 0.9461 0.3146 -0.0772
vn 0.9653 0.2613 0.0000
vn 0.0000 -1.0000 0.0000
vn 0.5123 0.8588 0.0000
vn 0.4212 0.8816 -0.2129
vn 0.0000 0.0000 -1.0000
vn 0.0000 -0.1181 -0.9930
vn -0.2410 -0.0029 0.9705
vn -0.2647 0.0124 0.9643
vn 0.5550 0.8251 0.1056
vn 0.4498 0.5346 0.7155
vn 0.0285 0.5927 -0.8049
vn -0.0976 -0.5335 -0.8402
vn -0.5357 -0.6369 -0.5544
vn -0.0335 -0.3193 0.9471
vn -0.1268 -0.2293 0.9651
vn 0.1438 0.6307 0.7626
vn -0.7706 0.0000 -0.6373
vn -0.8321 0.0156 -0.5544
vn -0.8298 -0.0395 -0.5567
vn 0.6211 -0.1051 0.7766
vn 0.4968 0.0195 0.8676
vn -0.2623 -0.1082 0.9589
vn 0.5432 0.3360 0.7695
vn 0.5702 0.3263 0.7540
vn 0.7436 0.0375 0.6676
vn -0.2047 -0.0029 0.9788
vn 0.0000 0.1184 -0.9930
vn 0.9954 0.0956 0.0000
vn 0.9639 0.0988 -0.2471
vn 0.9459 0.0723 0.3164
vn 0.4977 0.1082 -0.8606
vn -0.0043 -1.0000 -0.0086
vn -0.9477 0.2891 0.1350
vn -0.4563 0.5161 -0.7249
vn -0.0660 0.6726 0.7370
vn -0.1183 0.9895 0.0825
vn -0.5355 -0.1641 -0.8285
vn -0.4697 0.0119 -0.8828
vn -0.9691 -0.1773 0.1715
vn -0.9917 0.0506 0.1184
vn -0.9984 0.0509 -0.0253
vn -0.9989 0.0477 0.0000
vn -0.9759 -0.1854 -0.1154
vn -0.9927 -0.1203 0.0000
vn -0.0704 0.9579 -0.2783
vn -0.0912 0.9958 0.0000
vn -0.9461 0.3146 -0.0772
vn -0.9653 0.2613 0.0000
vn -0.5123 0.8588 0.0000
vn -0.4212 0.8816 -0.2129
vn 0.2410 -0.0029 0.9705
vn 0.2647 0.0124 0.9643
vn -0.5550 0.8251 0.1056
vn -0.4498 0.5346 0.7155
vn -0.0285 0.5927 -0.8049
vn 0.0976 -0.5335 -0.8402
vn 0.5357 -0.6369 -0.5544
vn 0.0335 -0.3193 0.9471
vn 0.1268 -0.2293 0.9651
vn -0.1438 0.6307 0.7626
vn 0.7706 0.0000 -0.6373
vn 0.8321 0.0156 -0.5544
vn 0.8298 -0.0395 -0.5567
vn -0.6211 -0.1051 0.7766
vn -0.4968 0.0195 0.8676
vn 0.2623 -0.1082 0.9589
vn -0.5432 0.3360 0.7695
vn -0.5702 0.3263 0.7540
vn -0.7436 0.0375 0.6676
vn 0.2047 -0.0029 0.9788
vn -0.9954 0.0956 0.0000
vn -0.9639 0.0988 -0.2471
vn -0.9459 0.0723 0.3164
vn -0.4977 0.1082 -0.8606
vn 0.0040 -0.0197 0.9998
vn 0.0272 0.0000 0.9996
vn 0.0718 0.0027 0.9974
vn 0.0281 -0.0006 0.9996
vn -0.0040 -0.0197 0.9998
vn -0.0272 0.0000 0.9996
vn -0.0718 0.0027 0.9974
vn -0.0335 -0.0007 0.9994
vn 0.0000 -0.2263 -0.9741
vn -0.4406 0.8239 0.3565
vn 0.9989 -0.0333 0.0340
vn -0.9963 -0.0158 -0.0849
vn -0.4682 0.8755 -0.1195
vn 0.0000 0.9908 -0.1352
vn 0.2706 0.9480 -0.1678
vn 0.0578 -0.8440 0.5332
vn 0.1454 0.7842 0.6032
vn 0.0000 0.7125 0.7016
vn 0.6028 0.7963 -0.0500
vn 0.0000 1.0000 0.0000
vn -0.6093 0.7924 -0.0281
vn 0.0000 -0.7816 0.6237
vn 0.0000 0.7973 -0.6036
vn 0.7654 0.6306 0.1284
vn 0.0000 -0.6387 -0.7695
vn 0.0000 0.2046 -0.9788
vn 0.0000 -0.9991 0.0425
vn -0.0117 -0.3341 0.9425
vn -0.0578 -0.8443 0.5327
vn -0.4949 -0.8690 -0.0029
vn -0.2053 -0.9787 -0.0032
vn -0.1058 -0.9034 -0.4155
vn -0.4869 -0.8549 -0.1791
vn 0.3509 -0.6824 -0.6412
vn 0.4821 -0.6695 0.5651
vn -0.6347 -0.7677 -0.0883
vn 0.4733 -0.8478 -0.2392
vn -0.7661 0.6043 0.2191
vn 0.6545 -0.7532 -0.0657
vn -0.6724 -0.7391 -0.0392
vn 0.0000 -1.0000 -0.0055
vn 0.4975 0.2202 -0.8391
vn 1.0000 0.0000 0.0000
vn -0.9991 -0.0433 -0.0001
usemtl cloak
s off
f 27/1/1 11/2/1 4/3/1 46/4/1 29/5/1 41/6/1
f 16/7/2 10/8/2 3/9/2 7/10/2
f 23/11/3 17/12/3 1/13/3 5/14/3
f 39/15/4 30/16/4 59/17/4 96/18/4
f 25/19/5 75/20/5 59/21/5 30/22/5 19/23/5
f 29/24/6 52/25/6 20/26/6 36/27/6
f 20/26/6 21/28/6 35/29/6
f 51/30/7 22/31/7 6/32/7 47/33/7
f 22/31/8 23/11/8 5/14/8 6/32/8
f 50/34/9 14/35/9 8/36/9 48/37/9
f 14/35/10 16/7/10 7/10/10 8/36/10
f 6/32/11 5/14/11 15/38/11 13/39/11
f 13/39/12 15/38/12 16/7/12 14/35/12
f 47/33/13 6/32/13 13/39/13 49/40/13
f 49/40/14 13/39/14 14/35/14 50/34/14
f 17/41/15 60/42/15 74/43/15 24/44/15
f 24/44/16 74/43/16 75/20/16 25/19/16
f 5/14/17 1/13/17 9/45/17 15/38/17
f 15/38/18 9/45/18 10/8/18 16/7/18
f 18/46/19 2/47/19 12/48/19 26/49/19
f 26/49/19 12/48/19 11/2/19 27/1/19
f 72/50/19 26/49/19 27/1/19 73/51/19
f 58/52/19 18/46/19 26/49/19 72/50/19
f 9/45/20 24/44/20 25/19/20 10/8/20
f 1/13/21 17/41/21 24/44/21 9/45/21
f 66/53/22 65/54/22 23/11/22 22/31/22
f 117/55/23 66/53/23 22/31/23 51/30/23
f 44/56/24 45/57/24 21/28/24 20/26/24
f 53/58/25 44/56/25 20/26/25 52/25/25
f 10/8/26 25/19/26 19/23/26 3/9/26
f 19/59/27 32/60/27 3/9/27
f 65/54/28 60/61/28 17/12/28 23/11/28
f 31/62/29 67/63/29 93/64/29 34/65/29
f 21/28/30 31/62/30 34/65/30 43/66/30
f 31/62/31 39/15/31 96/18/31 67/63/31
f 21/28/32 32/60/32 39/15/32 31/62/32
f 32/60/33 19/59/33 30/16/33 39/15/33
f 36/27/34 20/26/34 42/67/34 40/68/34
f 29/24/35 36/27/35 40/68/35 41/69/35
f 35/29/36 21/28/36 43/66/36 28/70/36
f 20/26/34 35/29/34 28/70/34 42/67/34
f 48/37/37 8/36/37 44/56/37 53/58/37
f 8/36/38 7/10/38 45/57/38 44/56/38
f 21/28/39 45/57/39 32/60/39
f 32/60/40 45/57/40 3/9/40
f 7/10/41 3/9/41 45/57/41
f 4/3/42 48/37/42 53/58/42 46/71/42
f 46/71/43 53/58/43 52/25/43 29/24/43
f 58/72/44 117/55/44 51/30/44 18/73/44
f 12/48/45 49/40/45 50/34/45 11/2/45
f 2/47/46 47/33/46 49/40/46 12/48/46
f 11/2/47 50/34/47 48/37/47 4/3/47
f 18/73/48 51/30/48 47/33/48 2/47/48
f 90/74/49 109/75/49 94/76/49 114/77/49 57/78/49 70/79/49
f 79/80/50 63/81/50 56/82/50 69/83/50
f 86/84/51 61/85/51 54/86/51 80/87/51
f 107/88/52 96/18/52 59/17/52 95/89/52
f 88/90/53 82/91/53 95/92/53 59/21/53 75/20/53
f 94/93/6 104/94/6 83/95/6 121/96/6
f 83/95/6 103/97/6 84/98/6
f 120/99/54 115/100/54 62/101/54 85/102/54
f 85/102/55 62/101/55 61/85/55 86/84/55
f 119/103/56 116/104/56 64/105/56 77/106/56
f 77/106/57 64/105/57 63/81/57 79/80/57
f 62/101/58 76/107/58 78/108/58 61/85/58
f 76/107/59 77/106/59 79/80/59 78/108/59
f 115/100/60 118/109/60 76/107/60 62/101/60
f 118/109/61 119/103/61 77/106/61 76/107/61
f 80/110/62 87/111/62 74/43/62 60/42/62
f 87/111/63 88/90/63 75/20/63 74/43/63
f 61/85/64 78/108/64 68/112/64 54/86/64
f 78/108/65 79/80/65 69/83/65 68/112/65
f 81/113/19 89/114/19 71/115/19 55/116/19
f 89/114/19 90/74/19 70/79/19 71/115/19
f 72/50/19 73/51/19 90/74/19 89/114/19
f 58/52/19 72/50/19 89/114/19 81/113/19
f 68/112/66 69/83/66 88/90/66 87/111/66
f 54/86/67 68/112/67 87/111/67 80/110/67
f 66/53/22 85/102/22 86/84/22 65/54/22
f 117/55/23 120/99/23 85/102/23 66/53/23
f 112/117/68 83/95/68 84/98/68 113/118/68 179/119/68
f 122/120/69 121/96/69 83/95/69 112/117/69
f 69/83/70 56/82/70 82/91/70 88/90/70
f 82/121/71 56/82/71 98/122/71
f 65/54/72 86/84/72 80/87/72 60/61/72
f 97/123/73 102/124/73 93/64/73 67/63/73
f 84/98/74 111/125/74 102/124/74 97/123/74
f 97/123/75 67/63/75 96/18/75 107/88/75
f 84/98/76 97/123/76 107/88/76 98/122/76
f 98/122/77 107/88/77 95/89/77 82/121/77
f 104/94/78 108/126/78 110/127/78 83/95/78
f 94/93/79 109/128/79 108/126/79 104/94/79
f 103/97/80 92/129/80 111/125/80 84/98/80
f 83/95/78 110/127/78 92/129/78 103/97/78
f 116/104/81 122/120/81 112/117/81 64/105/81
f 64/105/82 112/117/82 179/119/82 113/118/82 63/81/82
f 84/98/83 98/122/83 113/118/83
f 98/122/84 56/82/84 113/118/84
f 63/81/85 113/118/85 56/82/85
f 57/78/86 114/130/86 122/120/86 116/104/86
f 114/130/87 94/93/87 121/96/87 122/120/87
f 58/72/44 81/131/44 120/99/44 117/55/44
f 71/115/88 70/79/88 119/103/88 118/109/88
f 55/116/89 71/115/89 118/109/89 115/100/89
f 70/79/90 57/78/90 116/104/90 119/103/90
f 81/131/91 55/116/91 115/100/91 120/99/91
usemtl darkness
f 38/132/6 33/133/6 91/134/6 99/135/6
f 37/136/92 34/65/92 93/64/92 100/137/92
f 33/133/6 37/136/6 100/137/6 91/134/6
f 42/67/93 28/70/93 37/136/93 33/133/93
f 28/70/94 43/66/94 34/65/94 37/136/94
f 27/138/6 38/132/6 99/135/6 123/139/6 125/140/6 73/141/6
f 41/69/95 40/68/95 38/132/95 27/138/95
f 40/68/93 42/67/93 33/133/93 38/132/93
f 106/142/6 99/135/6 91/134/6 101/143/6
f 105/144/96 100/137/96 93/64/96 102/124/96
f 101/143/6 91/134/6 100/137/6 105/144/6
f 110/127/97 101/143/97 105/144/97 92/129/97
f 92/129/98 105/144/98 102/124/98 111/125/98
f 124/145/6 131/146/6 133/147/6 123/139/6 99/135/6 106/142/6
f 109/128/99 90/148/99 126/149/99 124/145/99 106/142/99 108/126/99
f 108/126/97 106/142/97 101/143/97 110/127/97
f 90/148/6 73/141/6 125/140/6 161/150/6 159/151/6 126/149/6
usemtl hand
f 145/152/100 144/153/100 129/154/100 157/155/100 130/156/100
f 128/157/101 136/158/101 132/159/101
f 172/160/102 139/161/102 127/162/102 135/163/102 137/164/102 129/154/102 144/153/102 151/165/102 149/166/102 154/167/102 143/168/102 155/169/102 148/170/102 164/171/102
f 178/172/103 177/173/103 171/174/103 163/175/103 147/176/103 156/177/103 146/178/103 153/179/103 150/180/103 152/181/103 145/152/103 130/156/103 138/182/103 136/158/103 128/157/103 140/183/103
f 141/184/104 140/183/104 128/157/104 132/159/104
f 142/185/105 141/184/105 132/159/105 134/186/105
f 139/161/106 142/185/106 134/186/106 127/162/106
f 138/182/6 158/187/6 137/164/6 135/163/6 136/158/6
f 157/155/107 129/154/107 137/164/107 158/187/107
f 134/186/108 135/163/108 127/162/108
f 132/159/109 136/158/109 135/163/109 134/186/109
f 123/139/110 133/147/110 142/185/110 139/161/110 175/188/110
f 133/147/111 131/146/111 141/184/111 142/185/111
f 131/146/112 124/145/112 178/172/112 140/183/112 141/184/112
f 156/177/113 155/169/113 143/168/113 146/178/113
f 152/181/114 151/165/114 144/153/114 145/152/114
f 164/171/115 148/170/115 168/189/115 167/190/115
f 153/179/116 154/167/116 149/166/116 150/180/116
f 150/180/117 149/166/117 151/165/117 152/181/117
f 146/178/118 143/168/118 154/167/118 153/179/118
f 147/176/119 160/191/119 162/192/119 148/170/119 155/169/119 156/177/119
f 130/156/120 157/155/120 158/187/120 138/182/120
f 163/175/121 165/193/121 160/191/121 147/176/121
f 165/193/122 166/194/122 162/192/122 160/191/122
f 173/195/123 174/196/123 166/194/123 165/193/123
f 171/174/124 173/195/124 165/193/124 163/175/124
f 174/196/125 172/160/125 164/171/125 166/194/125
f 170/197/126 167/190/126 168/189/126 169/198/126
f 162/192/127 166/194/127 170/197/127 169/198/127
f 166/194/128 164/171/128 167/190/128 170/197/128
f 148/170/129 162/192/129 169/198/129 168/189/129
f 161/150/130 125/140/130 176/199/130 172/160/130 174/196/130
f 126/149/131 159/151/131 173/195/131 171/174/131 177/173/131
f 159/151/132 161/150/132 174/196/132 173/195/132
f 176/199/133 175/188/133 139/161/133 172/160/133
f 125/140/134 123/139/134 175/188/134 176/199/134
f 124/145/135 126/149/135 177/173/135 178/172/135
l 140 171
